<svg xmlns="http://www.w3.org/2000/svg" viewBox="0 0 142.9 45">
    <path fill="#ffffff" d="M14.5 13.4h3.6v18.2h-3.6zM7.2 13.4h3.7v7.2H7.2zM21.8 13.4H29V17h-7.2zM21.8 27.9H29v3.6h-7.2zM0 13.4h3.6v18.2H0z"></path>
    <path fill="#ffffff" d="M42.2 18.2l2.2 6.2 2.2-6.2h2.3v8.6h-1.8v-2.3l.2-4-2.3 6.3h-1.2l-2.3-6.4.2 4.1v2.3h-1.8v-8.6h2.3zM58.1 25H55l-.6 1.8h-1.9l3.2-8.6h1.6l3.2 8.6h-1.9l-.5-1.8zm-2.6-1.4h2.2l-1.1-3.2-1.1 3.2zM65.8 23.8v3H64v-8.6h3.3c.6 0 1.2.1 1.7.4.5.2.9.6 1.1 1 .3.4.4 1 .4 1.5 0 .8-.3 1.5-.9 2-.7.5-1.5.8-2.4.7h-1.4zm0-1.5h1.6a2 2 0 001.1-.3c.3-.3.4-.6.4-1 .1-.7-.5-1.4-1.2-1.4h-1.8v2.7zM81.3 23.9c0 .8-.4 1.6-1 2.2-.7.6-1.5.8-2.4.8-1 0-1.9-.4-2.6-1.1a5 5 0 01-1-3.1v-.5c0-.8.1-1.5.5-2.2a3 3 0 011.3-1.4c.6-.3 1.2-.5 1.9-.5.9 0 1.7.2 2.4.8.6.6 1 1.4 1 2.2h-1.8c0-.4-.2-.9-.5-1.2-.3-.3-.8-.4-1.2-.4-.5 0-1 .2-1.3.6-.4.6-.5 1.3-.4 2v.6c0 .7.1 1.4.4 2 .3.4.8.7 1.3.6.4 0 .9-.1 1.2-.4.3-.3.5-.7.5-1.2l1.7.2zM88.3 23.7h-1.4v3.1h-1.8v-8.6h3.2c.8-.1 1.7.2 2.3.7.6.5.9 1.2.8 1.9.1 1-.5 2-1.5 2.4l1.9 3.5v.1H90l-1.7-3.1zm-1.4-1.5h1.4c.4 0 .7-.1 1-.3.3-.2.4-.6.4-.9 0-.4-.1-.7-.3-1-.3-.3-.7-.4-1.1-.4h-1.4v2.6zM100.7 23.1h-3.4v2.3h4v1.4h-5.8v-8.6h5.8v1.4h-4v2h3.4v1.5zM109.9 25h-3.1l-.6 1.8h-1.9l3.2-8.6h1.6l3.2 8.6h-1.9l-.5-1.8zm-2.7-1.4h2.2l-1.1-3.2-1.1 3.2zM121.6 19.6H119v7.2h-1.8v-7.2h-2.6v-1.4h7v1.4zM132.2 22.7c0 .8-.1 1.5-.4 2.2-.3.6-.7 1.1-1.3 1.5-1.2.7-2.6.7-3.8 0-.6-.3-1-.9-1.3-1.5-.3-.7-.5-1.4-.5-2.2v-.4c0-.8.1-1.5.5-2.2.3-.6.7-1.1 1.3-1.5 1.2-.7 2.6-.7 3.8 0 .6.4 1 .9 1.3 1.5.3.7.5 1.5.5 2.2v.4zm-1.8-.4a4 4 0 00-.5-2.1c-.3-.5-.8-.7-1.4-.7-.5 0-1.1.2-1.4.7-.4.6-.5 1.3-.5 2v.4c0 .7.1 1.4.5 2 .5.8 1.6.9 2.4.4l.4-.4c.3-.6.5-1.3.5-2v-.3zM139.4 23.7H138v3.1h-1.8v-8.6h3.2c.8-.1 1.7.2 2.4.7.6.5.9 1.2.8 1.9.1 1.1-.6 2-1.6 2.4l1.9 3.5v.1H141l-1.6-3.1zm-1.4-1.5h1.4c.4 0 .7-.1 1-.3.2-.2.4-.6.4-.9 0-.4-.1-.7-.3-1-.3-.3-.7-.4-1.1-.4H138v2.6z"></path>
</svg>