<svg xmlns="http://www.w3.org/2000/svg" viewBox="0 0 512 512" width="512pt" height="512pt"><path d="M37 125c12.96 0 25.92-.01 38.88.01-.01 37.99-.01 75.99 0 113.99 36.6 0 73.2.01 109.8-.01-.01-38-.01-75.99 0-113.99 12.96 0 25.91-.01 38.87 0v266c-12.96.01-25.91 0-38.87 0-.05-38.79.08-77.61-.07-116.39-36.57.08-73.16 0-109.73.04-.01 38.78-.01 77.56 0 116.34-12.96.02-25.92.01-38.88.01V125zM264.39 125.01c29.2 0 58.41-.04 87.61.02 26.83.18 54.05 5.47 76.99 19.98 16.34 10.2 29.14 24.79 38.47 41.54 16.24 28.72 22.96 62.8 17.5 95.45-3.74 23.26-12.26 48.1-27.7 66.26-15.7 17.5-36.65 30.28-59.27 36.6-15.95 4.53-32.45 6.12-48.99 6.13-28.2.01-56.41.02-84.61 0 .01-88.66.01-177.32 0-265.98z" fill="#ccc"/><path d="M303.26 160.65c15.58-.01 31.16-.03 46.74 0 13.28.05 26.34 1.88 38.81 6.56 12.3 4.56 23.52 11.89 32.51 21.45 11.67 12.41 19.48 27.84 23.36 44.38 4.28 16.03 4.01 32.69 1.25 48.96-3.13 17.08-10.04 33.12-22.14 45.79-12.67 13.4-29.38 21.28-47.29 24.92-10.45 2.23-20.86 2.68-31.5 2.67-13.92-.02-27.83.03-41.75-.02.02-64.91.01-129.81.01-194.71z" fill="#111"/></svg>