<svg xmlns="http://www.w3.org/2000/svg" viewBox="0 0 512 512" width="512pt" height="512pt"><path d="M36.02 97.48c7.96.48 13.21 4.89 19.57 8.94 15 8.61 29.48 18.05 44.52 26.59 3.12 1.81 5.99 3.97 9.09 5.8 14.94 8.63 29.34 18.11 44.34 26.65 10.47 6.98 21.62 12.82 32.12 19.77.04-20.08 0-40.15.02-60.23 12.96 0 25.91-.02 38.87.01-.01 25 0 49.99-.01 74.99-.03 2.99-.04 5.97.2 8.96 2.65 1.4 5.3 2.83 7.83 4.44 10.33 6.96 21.45 12.66 31.83 19.56-.01-35.99 0-71.97-.01-107.95 27.2-.03 54.41 0 81.61-.01 15.9-.15 31.6 1 47.05 4.92 22.49 5.54 43.23 16.91 58.68 34.35 17.03 19.42 28.17 44.23 32.8 69.55 4.99 26.5 1.52 53.92-7.5 79.17-4.84 13.26-11.37 25.67-20.66 36.38 7.94 4.36 15.37 9.54 23.23 14.04 3.59 2.04 6.83 4.4 9.07 7.94 5.04 7.66 4.34 18.58-2.08 25.23-4.87 5.49-13.38 7.93-20.4 5.82-5.49-1.23-10.58-5.33-15.52-8.08-10.13-5.81-19.84-12.25-29.9-18.17-15.92 7.76-33.13 12.24-50.74 13.87-12.06 1.24-23.94.94-36.03.98-23.2-.01-46.41.02-69.61-.01.01-33.67 0-67.33.01-100.99.03-2.99.03-5.98-.17-8.96-5.71-2.91-10.96-6.51-16.43-9.83-7.72-4.76-15.82-9-23.26-14.17.02 44.65-.01 89.3.01 133.95-12.96.03-25.91.01-38.87.01-.04-38.79.06-77.59-.05-116.38-36.58.05-73.17 0-109.75.03-.01 38.78-.01 77.56 0 116.34-12.96.02-25.92.01-38.88.01-.01-82.53.01-165.05 0-247.58-5.03-3.02-10.32-5.85-14.97-9.45-6.78-5.42-9.43-15.23-6.22-23.31 3.02-8.22 11.48-13.71 20.21-13.18z" fill="#ccc"/><path d="M303.26 160.65c15.91-.01 31.83-.04 47.74.02 14.5.11 28.76 2.5 42.12 8.27 15.71 6.73 29.11 18.24 38.29 32.64 8.54 13.06 13.38 28.06 15.63 43.42 1.83 14.21.84 29.02-2.38 42.96-3.59 15.37-10.83 29.71-21.96 41-6.98-4.7-14.31-8.78-21.5-13.14-6.81-3.82-13.19-8.29-19.99-12.12-6.58-4.06-13.29-7.85-19.71-12.16-14.33-8.23-28.27-17.08-42.51-25.48-5.36-2.95-10.19-6.71-15.64-9.53-.2-31.95-.03-63.93-.09-95.88zM75.88 167.12c7.92 4.69 15.92 9.3 23.6 14.37 15.55 9.04 30.66 18.78 46.23 27.78 9.42 6.42 19.71 11.54 29.12 17.95 3.53 2.24 7.24 4.15 10.77 6.39.05 1.79.08 3.58.11 5.38-36.61.02-73.22.01-109.83.01 0-23.96-.02-47.92 0-71.88zM303.3 305.04c4.12 2.9 8.6 5.14 12.88 7.77 11.91 7.05 23.58 14.5 35.59 21.39 9.45 6.25 19.32 11.86 29.06 17.66-9.87 2.18-19.71 3.4-29.83 3.46-15.91.12-31.83.04-47.74.04.04-16.77-.06-33.55.04-50.32z" fill="#111"/></svg>