<svg xmlns="http://www.w3.org/2000/svg" width="750" height="750"><path d="M322 152.428c-13.554 1.941-26.723 5.721-39 11.82-10.463 5.197-20.529 11.695-29 19.791-10.594 10.126-19.688 21.035-26.691 33.961C206.953 255.571 213 300.85 213 342v74c0 24.316-.313 47.38 6.427 71C240.906 562.268 319.688 609.529 396 598.572a160.441 160.441 0 0 0 49-15.325c13.357-6.679 26.162-14.927 37-25.286 22.324-21.339 39.03-47.841 46.525-77.961 5.111-20.54 4.475-41.01 4.475-62V291c0-8.883.77-18.174-.286-27-2.778-23.231-11.232-45.499-25.729-64-20.531-26.203-50.906-43.651-83.985-47.714-15.907-1.953-32.973-.286-49-.286-16.927 0-35.242-1.971-52 .428z" fill="#ccc"/><path d="M335 173.424c-13.605 1.787-26.379 3.399-39 9.357-9.838 4.644-18.782 10.347-27 17.508C224.863 238.753 235 299 235 351v70c0 16.432-.828 32.863 2.887 49C253.988 539.922 321.282 585.741 392 576.714c15.057-1.921 29.479-6.69 43-13.467 11.212-5.62 21.891-12.54 30.985-21.222 18.112-17.292 32.093-37.862 39.294-62.025 6.293-21.114 5.721-42.22 5.721-64v-76c0-21.497 2.906-43.548.83-65-2.553-26.384-11.839-50.371-30-69.985C453.516 174.435 414.583 173 376 173c-13.437 0-27.673-1.326-41 .424z" fill="#111"/><path d="M347.015 237.742c-5.785 2.282-6.006 7.927-6.015 13.258v71c0 5.076-1.289 12.324 1.318 16.895 2.674 4.69 7.855 5.079 12.682 5.104 9.666.051 19.334.001 29 .001 4.693 0 10.579.915 14.957-1.09 5.789-2.651 6.034-8.341 6.043-13.91v-71c0-4.826 1.167-11.557-1.179-15.956-2.667-5-7.854-5.036-12.821-5.044h-30c-4.337 0-9.876-.878-13.985.742z" fill="#ccc"/></svg>