<svg xmlns="http://www.w3.org/2000/svg" width="750" height="750"><path d="M372.015 6.653C363.771 9.288 356.753 20.837 351.086 27c-16.409 17.842-32.782 35.805-48.801 54-5.908 6.712-19.883 17.683-11.582 27.656 3.102 3.726 7.916 3.342 12.297 3.344h142c4.057 0 9.137.775 12.985-.742 14.795-5.836-.44-21.295-5.7-27.258-18.127-20.554-36.569-40.9-55.196-61-6.339-6.84-13.945-19.905-25.074-16.347z" fill="#ccc"/><path d="M324 91h104c-10.664-15.152-25.274-28.007-37.424-42-2.966-3.415-9.654-13.793-14.576-13.793-4.922 0-11.61 10.378-14.576 13.793-12.15 13.993-26.76 26.848-37.424 42z" fill="#111"/><path d="M352.667 133.333c-.445.445.611.389.666.334.445-.445-.611-.389-.666-.334m5 1c-.445.445.611.389.666.334.445-.445-.611-.389-.666-.334M325 152.428c-13.554 1.941-26.723 5.721-39 11.82-10.463 5.197-20.529 11.695-29 19.791-10.594 10.126-19.688 21.035-26.691 33.961C209.953 255.571 216 300.85 216 342v74c0 24.316-.313 47.38 6.427 71C243.906 562.268 322.688 609.529 399 598.572a160.441 160.441 0 0 0 49-15.325c13.357-6.679 26.162-14.927 37-25.286 22.324-21.339 39.03-47.841 46.525-77.961 5.111-20.54 4.475-41.01 4.475-62V291c0-8.883.77-18.174-.286-27-2.778-23.231-11.232-45.499-25.729-64-20.531-26.203-50.906-43.651-83.985-47.714-15.907-1.953-32.973-.286-49-.286-16.927 0-35.242-1.971-52 .428z" fill="#ccc"/><path d="M387 173v107l127-1c0-45.509-28.547-86.015-72-100.485-17.774-5.918-36.514-5.515-55-5.515z" fill="#111"/><path d="M153 283.562c-9.159 2.278-17.224 13.148-24 19.268-16.66 15.048-33.574 29.841-50 45.145-6.629 6.176-19.728 13.636-18.876 24.025.72 8.777 11.985 15.487 17.876 20.975 18.093 16.858 36.648 33.279 55 49.855 6.143 5.549 15.572 17.847 24.996 15.597 3.389-.809 6.417-3.072 7.49-6.467 2.891-9.144.514-22.389.514-31.96V313c0-9.535 3.796-33.617-13-29.438m439.004.095c-6.02 1.838-6.974 6.793-7.003 12.343-.046 8.666-.001 17.334-.001 26v107c0 9.378-3.776 33.706 13 29.414 9.283-2.375 18.183-14.008 25-20.325 16.463-15.256 33.578-29.813 50-45.114 6.58-6.131 19.288-13.552 17.782-23.974-1.259-8.719-12.795-15.447-18.782-21.026-17.763-16.55-36.129-32.454-54-48.889-6.392-5.879-15.995-18.484-25.996-15.429z" fill="#ccc"/><path d="M238 301v107c0 31.246-1.039 60.869 12.309 90 6.711 14.646 16.389 28.52 27.781 39.911 49.617 49.614 131.972 53.014 185.91 8.625 11.78-9.694 21.936-21.581 29.935-34.536 11.384-18.436 17.848-39.498 19.895-61 1.405-14.751.17-30.181.17-45V301H238m-94 18c-13.035 12.999-27.1 25.355-41 37.424-3.39 2.944-13.793 9.656-13.793 14.541 0 4.831 10.461 11.383 13.793 14.32 13.903 12.258 26.862 27.051 42 37.715v-92c0-3.983.552-8.301-1-12m462 0v104c15.138-10.663 28.004-25.423 42-37.576 3.41-2.961 6.67-6.067 9.98-9.139 1.501-1.393 3.813-3.012 3.813-5.31 0-4.737-10.478-11.672-13.793-14.551-13.99-12.151-26.852-26.763-42-37.424z" fill="#111"/><path d="M560 339l1 1-1-1M293.043 639.742c-13.731 5.567-.477 20.442 4.871 26.258 19.168 20.843 37.749 42.229 56.997 63 5.892 6.358 13.673 19.219 24.089 15.258 9.113-3.466 17.009-16.138 23.285-23.258 15.178-17.215 31.241-33.673 46.291-51 5.846-6.731 20.087-17.865 11.771-27.772-3.116-3.713-7.969-3.226-12.347-3.228H306c-4.025 0-9.151-.801-12.957.742z" fill="#ccc"/><path d="M324 660c3.167 6.791 9.835 12.568 14.965 18 7.67 8.122 15.133 16.566 22.459 25 2.695 3.103 9.124 12.793 13.576 12.793 2.281 0 3.904-2.325 5.285-3.813 3.072-3.31 6.178-6.57 9.139-9.98 12.153-13.996 26.913-26.862 37.576-42H324z" fill="#111"/></svg>