<svg xmlns="http://www.w3.org/2000/svg" viewBox="0 0 600 600" width="800" height="800"><path d="M0 0h600v600H0V0z" fill="#111"/><path d="M256.79 14.19c10.2 6.84 20.42 13.61 30.64 20.41 3.27 2.08 5.31 5.46 5.25 9.4.01 5.36-4.34 10-9.66 10.46-3.65.38-6.39-1.27-9.26-3.22-4.56-3.18-9.39-6.04-13.77-9.47.02 20.43 0 40.85.01 61.27.18 5.51-5.81 9.81-11.01 9.31-4.04-.2-9.42-3.83-9-8.32.03-20.75 0-41.51.01-62.26-5.2 3.94-10.78 7.42-16.22 11.04-4.77 3.12-11.52 1.78-14.58-3.05-3.22-4.81-1.98-11.46 2.83-14.68 10.36-7.01 20.82-13.92 31.21-20.87 4.34-3.04 9.21-3.11 13.55-.02zM284.74 144.28c5.77 7.29 8.81 16.43 8.71 25.72.04 31.08.01 62.84-.01 93.98 8.43-4.49 18.09-6.4 27.57-5.01 15.42 2.29 28.71 13.16 34.15 27.75 7.98-5.03 17.42-7.45 26.84-6.75 16.57 1.19 31.37 12.56 37.16 28.08 11.74-7.46 26.73-9 39.64-3.68 15.55 6.27 26.72 21.68 26.64 38.63.04 37.31 0 74.68.02 112 .04 9.74-.61 19.44-2.62 29-4.07 20.07-13.3 38.73-26.22 54.58-15.41 19.1-35.84 34.4-57.77 45.24-2.89 1.36-5.54 2.86-8.82 2.84-40.01.02-80.02 0-120.03.01-5.47.06-10.82-.84-16.01-2.57-12.73-4.27-23.46-12.87-32.59-22.51-12.04-12.79-22.03-28.02-30.83-43.16-18.95-32.82-33.75-67.7-50.05-101.96-5.76-11.95-11.43-24.14-18.5-35.49-2.86-4.63-5.97-8.6-8.31-13.51-4.13-8.52-6.03-18.05-4.74-27.47 1.2-9.23 5.75-18.12 12.73-24.29 13.28-12 34.41-14.37 49.91-5.33 5.18 2.89 8.71 7.03 12.74 11.26 7.91 8.34 15.85 16.66 23.77 24.99 0-58.21.01-116.42 0-174.63-.04-4.75.33-9.44 1.81-13.98 4.37-14.31 16.73-25.52 31.27-28.84 15.9-3.79 33.44 2.22 43.54 15.1z" fill="#ccc"/><path d="M387.98 144.82c4.03-.12 7.73 1.93 9.88 5.33 6.95 10.41 13.95 20.81 20.83 31.26 2.52 3.68 2.57 8.51.04 12.2-6.64 10.05-13.4 20.04-20 30.11-2.29 3.61-4.48 5.46-8.65 6.59l-3.12-.03c-2.68-1-5.14-1.97-6.87-4.39-2.24-2.73-2.09-6.43-1.56-9.72.64-2 2.05-3.83 3.19-5.59 3.09-4.41 5.65-8.94 9.13-13.04-20.28-.09-40.57-.03-60.85-.03-5.31.57-10.37-5.32-9.72-10.49-.24-4.39 2.41-7.02 5.61-9.51 21.66-.05 43.31.05 64.97-.05-3.87-4.65-6.91-9.97-10.39-14.93-2.58-3.2-2.86-7.79-1.52-11.53 1.7-3.63 5.17-5.62 9.03-6.18zM109.94 144.77c1.03-.04 2.06-.08 3.1-.1 3.76 1.33 6.94 3.21 8.35 7.17.8 3.79.59 7.53-1.85 10.69-3.48 4.95-6.48 10.3-10.39 14.9 20.28.16 40.57.04 60.86.06 5.31-.6 10.34 5.34 9.71 10.49.24 4.39-2.41 7.02-5.61 9.51-21.66.07-43.32-.1-64.97.08 3.23 3.72 5.58 7.89 8.38 11.91 1.31 1.99 2.83 3.98 3.8 6.16.9 4.03.83 8.29-2.37 11.31-3 3.13-6.98 3.26-11.02 2.57-3.03-.79-5-3.46-6.67-5.93-6.6-10.02-13.37-19.96-19.95-30-2.53-3.69-2.57-8.51-.04-12.21 6.93-10.43 13.91-20.87 20.85-31.33 2.12-3.01 4.22-4.45 7.82-5.28z" fill="#ccc"/><path d="M253.01 149.51c9.45.87 18.5 8.67 18.96 18.47.17 43.7.14 87.34.14 131.04-.12 3.98 1.67 7.72 5.11 9.79 4.81 2.99 11.34 1.52 14.42-3.2 2.35-3.34 1.38-7.44 2.69-11.42 2.85-8.65 11.66-14.42 20.67-14.22 10.52-.01 20.4 8.31 21.02 19.03.28 7.6-.11 15.23.16 22.83.25 4.41 3.37 8.22 7.6 9.44 5.23 1.61 11.13-1.33 12.96-6.49 1-3.23.55-6.73 1.84-10 3.25-8.59 12.34-14.06 21.42-13.48 9.99.43 19.28 8.53 20 18.69.33 7.66-.1 15.37.19 23.04.14 3.32 1.96 6.27 4.64 8.16 4.22 2.96 10.33 2.25 13.74-1.63 2.38-2.43 2.72-5.34 2.98-8.57.53-7.52 5.83-13.83 12.64-16.69 7.14-3.08 15.64-1.98 21.79 2.74 4.98 3.78 8.16 9.64 8.11 15.95.02 38.66.04 77.36-.01 116.01-.06 20.47-6.28 40.46-17.63 57.46-12.9 19.3-31.82 34.9-52.19 45.8-2.53 1.18-5.4 3.27-8.25 3.08-38.67-.02-77.34 0-116.02 0-9.32.12-17.8-4.8-24.8-10.53-11.85-9.9-21.35-23.46-29.61-36.39-21.71-34.89-37.93-73.36-55.5-110.5-7.49-15.47-14.47-30.51-24.26-44.76-4.41-6.46-7.25-14.9-5.28-22.69 2.39-9.27 12.11-15.37 21.46-14.69 4.82.31 9.06 2.35 12.34 5.87 15.28 16.07 30.61 32.06 45.86 48.15 2.31 2.54 5.3 4.21 8.8 4.1 4.36.11 8.42-3 9.79-7.07.43-2.89.16-5.91.21-8.83 0-65-.01-130.01.01-195.01.23-4.53.85-9.69 3.44-13.53 4.33-6.85 12.48-10.86 20.56-9.95z" fill="#111"/></svg>