<svg xmlns="http://www.w3.org/2000/svg" viewBox="0 0 600 600" width="800" height="800"><path d="M161.98 75.01c17.67-.01 35.41-.03 53.08.01 5.57 0 10.43 5.41 9.95 10.95-.07 17.34-.01 34.71-.03 52.05.06 3.34-.88 6.33-3.35 8.65-3.9 3.87-10.48 3.96-14.47.17-2.6-2.31-3.58-5.41-3.52-8.82.02-8.94-.05-17.87.06-26.8-4.29 4.53-8.8 8.85-13.19 13.29-40.44 40.38-80.78 80.93-121.3 121.21 9.27-.06 18.55-.12 27.82 0 5.7 0 10.46 4.6 10.58 10.31.22 5.84-4.73 10.94-10.56 10.93-17.66.11-35.39-.01-53.06.06-5.47.58-11.1-4.46-10.98-9.97-.03-17.33.02-34.72-.03-52.05.05-2.42.01-4.64 1.17-6.83 2.29-4.61 7.95-6.95 12.82-5.26 4.36 1.44 7.28 5.45 7.3 10.05.1 9.25.05 18.51 0 27.76 1.53-1.62 3.09-3.21 4.67-4.78 43.29-43.2 86.46-86.58 129.81-129.71-9.26.05-18.52.06-27.78.02-3.4-.02-6.15-1.36-8.29-3.97-3.18-3.82-3.08-9.68.13-13.45 2.3-2.79 5.63-3.88 9.17-3.82zM343.14 89.87c6.53 7.46 10.01 17.23 9.9 27.12 0 30.49.02 60.98-.01 91.47 12.67-7.01 28.99-7.34 41.68-.19 7.15 3.87 12.97 9.67 17.03 16.7 10.94-8.09 25.21-11 38.34-7.13 15.47 4.39 27.83 17.79 30.39 33.76 9.14-5.3 19.92-7.13 30.3-5.03 18.94 3.77 34.17 20.85 34.22 40.42.02 57 .01 114.01.01 171.01.03 11.31-1.38 22.59-4.38 33.5-5.38 19.68-15.83 37.52-29.55 52.54-16.03 17.56-36.03 31.56-57.64 41.39-4.07 2.12-8.03 1.52-12.43 1.57H327.99c-6.42.02-12.76-1.09-18.75-3.4-12.38-4.66-23.36-13.96-32.17-23.65-11.35-12.44-20.82-27.24-29.29-41.75-20.19-35.09-35.55-72.48-53.16-108.83-4.13-8.69-8.49-17.32-13.37-25.61-3.91-6.71-8.58-12.18-11.36-19.57-4.64-11.73-4.84-24.99.86-36.39 7.03-14.22 22.46-23.3 38.24-23.13 10.94-.06 21.49 4.39 29.1 12.23 9.9 10.14 19.71 20.38 29.62 30.51V124c.01-6.12-.28-11.83 1.45-17.79 4-14.66 16.35-26.35 31.08-29.9 15.41-3.89 32.56 1.48 42.9 13.56z" fill="#ccc"/><path d="M309.99 96.37c8.65-.23 17.1 5.08 20.4 13.12 1.88 4.47 1.21 9.69 1.32 14.51.06 55.33-.09 108.31-.07 163.01-.07 3.42.73 6.62 3.34 8.98 3.65 3.63 9.71 4 13.74.77 2.8-2.14 4.23-5.19 4.23-8.71.12-14.69-.08-29.39.1-44.07.01-8.38 6.04-15.54 13.72-18.31 9.22-3.45 19.95 0 25.46 8.13 3.03 4.26 3.62 9.11 3.44 14.2-.63 20.39-.01 40.66-.02 61.03-.02 3.1.91 5.99 3.19 8.16 3.81 4 10.65 4.11 14.63.3 2.45-2.26 3.53-5.16 3.5-8.46.05-17.34 0-34.72.05-52.06.13-11.72 11.73-20.49 23-19.43 9.9.73 18.7 8.57 19.52 18.64.5 19.56-.58 39.25.16 58.78.13 5.69-.19 11.41.12 17.09.39 5.28 4.96 9.41 10.19 9.6 5.95.18 11.01-4.64 10.99-10.61.16-15.02-.08-30.06.11-45.08.49-10.72 10.52-18.83 20.92-18.89 11.05-.34 21.49 8.61 21.65 19.9.07 52.26.01 104.75.03 157.03-.07 10.88.44 21.2-1.5 31.99-3.08 18.45-11.5 35.45-23.46 49.75-13.43 16.06-30.93 28.94-49.62 38.25-1.71.8-3.16 1.71-5.12 1.68-37.93 0-76.11-.02-114.02.01-4.89.14-9.73-.51-14.25-2.42-9.3-3.85-17.43-11.51-24.03-18.95-11.6-13.38-21.01-28.97-29.63-44.39-18.49-33.39-33.48-69.67-50.18-103.81-5.48-11.17-11.3-22.39-18.37-32.64-4.56-6.78-7.41-15.47-4.86-23.54 3.37-10.49 16.01-16.36 26.33-12.95 3.09.96 5.73 2.72 7.96 5.04 15.6 16.06 31.28 32.08 46.85 48.19 1.99 2.06 4.19 3.72 7.15 4 4.38.6 8.69-1.62 10.78-5.5 1.77-3.06 1.23-7.28 1.31-10.71-.02-81.67 0-163.33-.01-245 .06-4.34-.4-8.69 1.16-12.8 2.93-8.13 11.2-13.74 19.79-13.83z" fill="#111"/></svg>