<svg xmlns="http://www.w3.org/2000/svg" viewBox="0 0 600 600" width="800" height="800"><path d="M287.16 12.8c10.43 6.92 20.83 13.88 31.27 20.8 3.26 2.07 5.32 5.49 5.25 9.39.03 5.35-4.34 10-9.64 10.46-3.65.4-6.4-1.25-9.28-3.21-4.57-3.18-9.38-6.04-13.76-9.46.01 20.42 0 40.85 0 61.28.1 6.29-7.23 10.69-12.97 8.95-3.34-.85-7.45-4.15-7.04-7.97.03-20.75 0-41.51.01-62.27-4.79 3.69-10.01 6.83-14.99 10.27-2.97 2.11-6.41 3.12-10 2.03-4.81-1.34-7.98-6.17-7.58-11.1.28-3.54 2.25-6.42 5.19-8.32 10.41-6.94 20.8-13.94 31.25-20.82 3.81-2.54 8.48-2.6 12.29-.03zM336.58 134.44c11.72 7.01 19.49 19.85 19.82 33.56.2 17.92-.11 35.86.17 53.78-.21 14.4-.22 28.82.16 43.22-.19 6.81-.34 13.59-.3 20.4 7.43-4.16 16.08-6.05 24.57-5.43 16.57 1.2 31.37 12.56 37.16 28.07 8.29-5.18 18.12-7.66 27.88-6.59 15.39 1.47 29.34 11.79 35.28 26.06 2.24 5.21 3.15 10.82 3.14 16.48V456c-.01 8.03-.48 16.03-1.86 23.95-3.65 21.81-13.4 42.17-27.44 59.2-16.02 19.6-37.18 35.16-60.01 45.95-3.98 2.09-7.83 1.52-12.15 1.57-38.01-.01-76.02 0-114.03 0-7.3.08-14.5-1.6-21.15-4.58-12.65-5.62-23.19-15.37-32.15-25.74-11.24-13.19-20.58-28.03-29.05-43.11-17.55-31.23-31.95-64.97-47.42-97.44-6.81-14.15-13.19-27.84-22.12-40.86-6.84-9.92-10.58-21.86-9.23-33.96 1.06-9.87 5.82-19.29 13.39-25.75 13.29-11.57 34.04-13.76 49.32-4.87 5.41 3 9.06 7.39 13.28 11.79 7.75 8.17 15.51 16.32 23.28 24.47.04-48.51-.05-97.11.04-145.61.24-17.88 13.01-33.73 29.89-38.98 11.32-3.61 23.94-2.15 34.28 3.65 1.73-16.57 13.93-30.73 29.72-35.65 11.76-3.75 25.03-2.04 35.53 4.41zM119.79 155c.32 3.52-1.1 5.99-3.04 8.73-3.25 4.56-5.96 9.54-9.65 13.69 20.3.18 40.61.05 60.91.07 5.32-.57 10.34 5.34 9.71 10.5.22 4.41-2.41 7.01-5.62 9.5-21.66.07-43.34-.11-65 .09 3.15 3.51 5.4 7.52 8.07 11.38 1.44 2.19 3.11 4.36 4.18 6.75.86 4.03.79 8.22-2.39 11.24-3.08 3.2-7.39 3.34-11.46 2.45-2.82-.99-4.63-3.41-6.23-5.79-6.59-10.02-13.36-19.95-19.93-29.97-2.57-3.71-2.61-8.58-.03-12.3 6.61-10.02 13.35-19.98 19.94-30.03 1.76-2.66 3.69-5.05 6.87-6 6.11-2.4 14.09 2.96 13.67 9.69zM457.06 145.48c3 .77 5.03 3.47 6.67 5.92 6.6 10.01 13.36 19.94 19.93 29.96 2.58 3.69 2.62 8.61.03 12.3-6.92 10.43-13.91 20.89-20.84 31.33-1.91 2.94-4.52 4.32-7.75 5.4-3.66-.11-7.1-1.05-9.56-3.94-2.71-2.94-2.65-6.94-1.91-10.63.94-2.24 2.49-4.31 3.83-6.34 2.79-4.02 5.17-8.21 8.39-11.92-19.28-.14-38.57-.04-57.85-.04-2.94-.16-5.68.59-8.1-1.4-3.54-2.58-5.06-5.72-4.57-10.16.13-3.98 2.73-6.14 5.57-8.45 21.67-.07 43.34.11 65-.09-3.28-3.68-5.6-7.85-8.41-11.88-1.34-2.03-2.89-4.07-3.85-6.31-.85-4.03-.77-8.17 2.4-11.19 3.01-3.11 6.98-3.25 11.02-2.56z" fill="#ccc"/><path d="M332.71 160.28c3.28 5.66 2.23 11.46 2.4 17.72.12 47.34-.27 94.69 0 142.02-.22 4.54 1.96 8.73 6.14 10.67 4.76 2.31 10.74.53 13.52-3.94 2.17-3.25 1.31-7.51 2.57-11.29 3-8.97 12.35-14.76 21.68-14.16 9.97.43 19.25 8.52 19.98 18.66.33 7.68-.11 15.4.19 23.08.15 3.58 2.26 6.71 5.26 8.56 4.22 2.48 9.89 1.64 13.14-2.06 2.35-2.41 2.7-5.31 2.96-8.53.52-7.55 5.85-13.88 12.7-16.73 7.34-3.15 16.11-1.87 22.27 3.19 4.68 3.79 7.61 9.45 7.57 15.52.02 38.65.04 77.36-.01 116.01-.06 20.46-6.28 40.45-17.63 57.46-12.89 19.3-31.82 34.9-52.19 45.8-2.52 1.18-5.38 3.26-8.22 3.08-38.68-.02-77.37-.01-116.05 0-10.59.17-20.5-6.41-27.99-13.33-10.36-9.56-18.87-21.77-26.42-33.59-21.7-34.87-37.93-73.38-55.5-110.5-7.49-15.47-14.47-30.51-24.26-44.76-4.41-6.46-7.26-14.91-5.27-22.7 2.48-9.62 12.83-15.79 22.49-14.58 4.39.5 8.3 2.54 11.3 5.76 15.47 16.25 30.9 32.41 46.37 48.67 3.59 3.95 9.91 4.89 14.26 1.65 3.26-2.33 4.62-6.02 4.48-9.95-.02-56.68-.01-113.37 0-170.06-.18-11.14 9.68-20.25 20.55-20.54 10.55-.52 21.39 7.65 21.97 18.55.2 33.05.11 66.04.14 99.09-.21 5.07 2.97 9.66 7.92 10.96 5.14 1.44 10.82-1.45 12.66-6.45.53-2.09.27-4.42.33-6.56-.05-30.31 0-60.68-.03-91 .01-2.35.6-4.63.61-6.97-.3-9.69-.12-19.39-.15-29.08-.13-8.26 5.27-15.53 12.7-18.76 9.94-4.45 22.22-.36 27.56 9.09z" fill="#111"/></svg>