<?xml version="1.0" standalone="yes"?>
<svg xmlns="http://www.w3.org/2000/svg" width="818" height="91">
<path style="fill:#ffffff; stroke:none;" d="M0 0L0 86L0.972222 85.2222L1.16667 84.6944L1.63889 83.8889L2.38889 82L3.19444 80L3.61111 79L4.38889 77L5.19444 75L5.61111 74L6.38889 72L7.19444 70L7.61111 69L8.38889 67L8.80556 66L9.61111 64L10.3889 62L11.1944 60L11.6111 59L12.3889 57L13.1944 55L13.6111 54L14.3889 52L14.8056 51L15.6111 49L16.3889 47L16.8056 46L17.6111 44L18.3889 42L19.1944 40L19.6111 39L20.3889 37L20.8056 36L21.6111 34L22.3889 32L22.8056 31L23.6111 29L24.3889 27L24.8056 26L25.6111 24L26.3889 22L27.1944 20L27.6111 19L28.3889 17L29.1944 15L29.6111 14L30.3889 12L31.1944 10L31.6111 9L32.3889 7L33.1944 5L33.6111 4L34.3333 2.05556L34.5556 1.5L35 0L0 0z"/>
<path style="fill:#000000; stroke:none;" d="M35 0L34.1944 1.5L34 2.05556L33.1944 4L32.8056 5L32.3889 6L31.6111 8L30.8056 10L30.3889 11L29.6111 13L28.8056 15L28.3889 16L27.6111 18L26.8056 20L26.3889 21L25.6111 23L24.8056 25L24.3889 26L23.6111 28L23.1944 29L22.3889 31L21.6111 33L21.1944 34L20.3889 36L19.6111 38L18.8056 40L18.3889 41L17.6111 43L17.1944 44L16.3889 46L15.6111 48L15.1944 49L14.3889 51L13.6111 53L13.1944 54L12.3889 56L11.6111 58L10.8056 60L10.3889 61L9.61111 63L8.80556 65L8.38889 66L7.61111 68L7.19444 69L6.38889 71L5.61111 73L5.19444 74L4.38889 76L3.61111 78L3.19444 79L2.38889 81L1.61111 83L0.833333 85L0.472222 85.9444L0.0833333 87.5L0 89L25 89L25.8056 87.5L25.9722 86.9444L26.3611 85.9444L26.6667 85L27.3333 83L27.6667 82L28.3889 80L28.8056 79.0556L29.1944 78.0556L29.5 77.5L30 76L60 76L60.0278 77.5L60.2222 79.0556L60.4167 80L61 82L61.3333 83L62 85L62.5833 86.9444L62.75 87.5L63 89L89 89L88.9167 87.5L88.5278 85.9444L88.1667 85L87.3889 83L86.6111 81L86.1944 80L85.3889 78L84.6111 76L84.1944 75L83.3889 73L82.6111 71L81.8056 69L81.3889 68L80.6111 66L79.8056 64L79.3889 63L78.6111 61L78.1944 60L77.3889 58L76.6111 56L76.1944 55L75.3889 53L74.6111 51L74.1944 50L73.3889 48L72.6111 46L71.8056 44L71.3889 43L70.6111 41L69.8056 39L69.3889 38L68.6667 36L68.3333 35L67.9722 34L67.6111 33L67.1944 32L66.3889 30L65.6111 28L64.8056 26L64.3889 25L63.6111 23L63.1944 22L62.3889 20L61.6111 18L60.8056 16L60.3889 15L59.6111 13L59.1944 12L58.3889 10L57.6111 8L56.8056 6L56.3889 5L55.6389 3.05556L55.1667 2.05556L54.9722 1.5L54 0L35 0z"/>
<path style="fill:#ffffff; stroke:none;" d="M54 0L54.5 1.5L54.8056 2.05556L55.1944 3.05556L55.6111 4L56.3889 6L57.1944 8L57.6111 9L58.3889 11L59.1944 13L59.6111 14L60.3889 16L60.8056 17L61.6111 19L62.3889 21L62.8056 22L63.6111 24L64.3889 26L64.8056 27L65.6111 29L66.3889 31L67.1944 33L67.6111 34L67.9722 35L68.3333 36L68.6667 37L69.3889 39L69.8056 40L70.6111 42L71.3889 44L72.1944 46L72.6111 47L73.3889 49L74.1944 51L74.6111 52L75.3889 54L75.8056 55L76.6111 57L77.3889 59L78.1944 61L78.6111 62L79.3889 64L80.1944 66L80.6111 67L81.3889 69L81.8056 70L82.6111 72L83.3889 74L84.1944 76L84.6111 77L85.3889 79L85.8056 80L86.6111 82L87.3889 84L87.8056 85L88.5278 86.9444L88.7222 87.5L89 89L63 89L62.9167 87.5L62.7778 86.9444L62.5833 85.9444L62 84L61.3333 82L61 81L60.6944 80L60.4167 79.0556L60.0833 77.5L60 76L30 76L29.0278 77.5L28.8333 78.0556L28.3611 79.0556L28.0278 80L27.6667 81L27 83L26.3333 85L26 85.9444L25.6667 86.9444L25.4444 87.5L25 89L0 89L0 91L155 91L154.222 90.25L153.694 90.1667L151.972 89.5556L151 89.1667L150 88.8056L149 88.3611L148 87.9444L146 86.9167L145 86.3056L143 85L141 83.5833L139.028 81.9167L138.083 80.9722L136.389 79L135.639 78L134.139 76L133.389 75L132.028 73L131.417 72L130.417 70L130.028 69L129.333 67L128.694 65L128.417 64L128.056 62L127.944 61L127.611 59L127.389 58L127.111 56L127.111 55L127.389 53L127.611 52L127.778 51L128.056 49L128.417 47L128.694 46L129.389 44L129.833 43L130.25 42L130.778 41L131.222 40L131.778 39L132.25 38L133.444 36L134.167 35L135.639 33L136.389 32L138.083 30.0278L139.028 29.0833L141 27.4167L143 26L144 25.3333L145 24.6667L147 23.4167L149 22.4167L150 22.0278L152 21.3333L153 21L155 20.4167L157 20.0833L159 20L160 20L162 20L164 20L165 20L167 20.0278L168 20.0833L170 20.3889L171 20.6389L173 21.1667L174 21.4444L176 22.1944L178 23.0556L180 24.0833L182 25.3333L184 26.6944L185 27.4167L186.972 29.0833L187.917 30.0278L189.611 32L190.361 33L191.833 35L192.556 36L193.139 37L193.75 38L194.222 39L194.75 40L195.611 42L195.972 43L196.611 45L196.861 46L197.361 48L197.611 49L197.917 51L197.972 52L198 53L198 55L198 62L148 62L148.444 63.5L148.694 64.0556L149.083 65.0556L150.083 66.9722L151.417 68.7778L153.083 70.3056L155 71.5833L157 72.5278L158 72.8333L160 73.3611L161 73.6111L163 73.8333L165 73.6111L166 73.3611L168 72.7778L169 72.3889L170 71.8889L172 70.5833L173 69.8056L175 68.3056L176 67.7222L177 67.3333L179 67.0278L180 67L181 67L184 67L196 67L195.667 68.5L195.361 69.0556L194.917 70.0556L194.361 71L193.194 73L192.611 74L191.306 76L190.583 77L188.917 79L187 81L185 82.9722L184 83.9167L182 85.5278L180 86.75L179 87.2222L177 88.2222L176 88.75L174.056 89.5278L172.5 89.9167L171 90L171.778 90.7222L172.306 90.75L173.111 90.9444L174.028 90.9722L175 91L176 91L178 91L189 91L234 91L400 91L399.222 90.1944L398.694 90.0278L397.889 89.6389L396.972 89.3333L395 88.6111L394 88.1667L393 87.7222L391 86.6111L389 85.3056L388 84.5833L386 82.9167L384 81L383 80L381.083 78L379.417 76L378.694 75L377.417 73L376.417 71L375.611 69L374.833 67L374.444 66L373.861 64L373.639 63L373.389 62L373.083 60L373 58L373 56L373 54L373.028 53L373.083 52L373.389 50L373.639 49L374.139 47L374.389 46L375.028 44L375.389 43L376.25 41L376.778 40L377.25 39L377.833 38L378.389 37L379.028 36L380.417 34L382.083 32L383.028 31L385 29.0278L386 28.0833L388 26.4167L390 25.0278L391 24.3889L392 23.8333L393 23.2778L394 22.8333L395 22.3889L396 22.0278L398 21.3333L399 21L401 20.4167L403 20.0833L404 20.0278L406 20L407 20L409 20L411 20L412 20L414 20.0833L416 20.4167L418 21L419 21.3333L421 22.0278L422 22.3889L423 22.8333L424 23.2778L425 23.8333L426 24.3889L428 25.6944L429 26.4167L430 27.2222L432 29.0278L433.972 31L434.917 32L436.583 34L437.972 36L438.611 37L439.167 38L439.75 39L440.222 40L440.75 41L441.611 43L442.306 45L442.583 46L442.806 47L443.194 49L443.389 50L443.611 51L443.917 53L443.972 54L444 56L444 57.9444L444 61L443 62L394 62L394.25 64.0556L394.5 65.0556L395.5 67L397.083 68.9722L399 70.6944L400 71.3611L401 71.8889L402 72.3056L404 73L405 73.3056L406 73.5833L408 73.8333L410 73.6111L411 73.3611L413 72.8333L414 72.5278L416 71.5L418 69.9444L419 69.0833L421 67.7222L423 67.1111L424 67.0278L426 67L427 67L430 67L442 67L441.306 68.5L440.944 69.0556L439.833 71L439.25 72L438.75 73L437.556 75L436.833 76L435.361 78L434.611 79L432.917 80.9167L431 82.6111L430 83.3611L428 84.8611L427 85.6111L425 86.9722L424 87.5833L422 88.5833L420.056 89.3056L419.056 89.5833L418.5 89.75L417 90L417.778 90.7222L418.306 90.75L419.111 90.9444L420.028 90.9722L421 91L422 91L424 91L434 91L476 91L475.222 90.1944L474.694 90.0278L473.889 89.6389L472.972 89.3333L471 88.6111L470 88.1667L469 87.7222L467 86.5556L466 85.8333L464 84.3611L463 83.6111L461.083 81.9167L459.389 80L458.639 79L457.167 77L456.444 76L455.25 74L454.778 73L454.25 72L453.389 70L452.694 68L452.417 67L452 65L451.611 63L451.389 62L451.083 60L451.028 59L451 57L451 55L451 53L451.028 52L451.083 51L451.389 49L451.611 48L452 46L452.472 44L452.833 43L453.611 41L454 40L454.889 38L455.417 37L456.028 36L457.389 34L458.139 33L459.639 31L461.222 29.0833L463.028 27.3889L465 25.8611L466 25.1667L467 24.4444L469 23.2778L470 22.8333L471 22.3889L472 22.0278L474 21.3333L476 20.6944L477 20.4167L479 20.0833L481 20L482 20L484 20L486 20L487 20L489 20.0278L490 20.0833L492 20.4167L494 21.0278L495 21.4167L497 22.4167L499 23.6667L499.944 24.3056L500.944 24.9167L501.5 25.3056L503 26L503 0L369 0L369 20L342 20L342 35L368 35L368 55L342 55L342 89L319 89L319 0L118 0L118 89L97 89L97 0L54 0z"/>
<path style="fill:#000000; stroke:none;" d="M97 0L97 89L118 89L118 0L97 0M319 0L319 89L342 89L342 55L368 55L368 35L342 35L342 20L369 20L369 0L319 0M503 0L503 26L501.5 24.75L499.944 23.6389L499 23.0278L498 22.4167L496 21.4167L495 21.0278L493 20.4167L491 20.0833L489 20L488 20L487 20L484 20L482 20L481 20L479 20.0278L478 20.0833L476 20.4167L474 21L473 21.3333L471 22.0278L470 22.3889L468 23.2778L467 23.8611L466 24.4444L464 25.8611L462.083 27.3889L460.389 29.0833L459.639 30.0278L458.139 32L457.389 33L456.028 35L455.417 36L454.417 38L453.611 40L452.833 42L452.472 43L452.222 44L452 45L451.611 47L451.389 48L451.083 50L451.028 51L451 53L451 54L451 56L451 58L451.028 60L451.083 61L451.389 63L451.611 64L451.806 65L452.194 67L452.417 68L452.694 69L453.389 71L454.25 73L454.778 74L455.25 75L456.444 77L457.167 78L458.639 80L459.389 80.9722L460.222 81.9167L462.028 83.6111L463 84.3611L465 85.8333L466 86.5556L468 87.7222L469 88.1667L470 88.6111L471 88.9722L473 89.6667L474 90L476 90.5833L477 90.7778L478 90.9167L480 91L481 91L483 91L486 91L488 91L489 91L491 90.9722L492 90.9167L494 90.5833L496 89.9722L497 89.5833L499 88.5L500.944 86.9722L502.5 85.5L504 84L504 89L524 89L524 0L517 0L503 0z"/>
<path style="fill:#ffffff; stroke:none;" d="M524 0L524 89L504 89L504 84L502.5 84.7778L501.944 85.3056L500.944 86.0833L500 86.9444L498 88.5L497.056 89.0556L495.5 89.7222L494 90L494.778 90.7222L495.306 90.75L496.111 90.9444L497.028 90.9722L498 91L499 91L501 91L514 91L518 91L523 91L525 91L527 91L537 91L562 91L561.222 90.25L560.694 90.1667L558.972 89.5556L558 89.1667L557 88.8056L556 88.3611L555 87.9444L553 86.9167L552 86.3056L550 85L548 83.5833L546 81.9167L544.083 80L542.417 78L541 76L539.694 74L539.083 73L538.056 71L537.194 69L536.833 68L536.444 67L536.167 66L535.639 64L535.389 63L535.083 61L535 59L535 58L535 56L535 53L535 52L535.083 50L535.389 48L535.639 47L535.861 46L536.444 44L537.25 42L537.778 41L538.778 39L539.25 38L540.389 36L541.028 35L542.417 33L544.083 31L545.028 30.0278L546 29.0833L548 27.4167L549 26.6944L551 25.3889L553 24.25L554 23.7778L556 22.7778L557 22.25L559 21.4444L561 20.8611L562 20.6389L563 20.3889L565 20.0833L567 20L568 20L571 20L573 20L574 20L576 20.0278L577 20.0833L579 20.4167L581 21L582 21.3333L584 22.0278L585 22.3889L586 22.8333L587 23.25L588 23.7778L589 24.25L591 25.4444L592 26.1667L594 27.6389L595 28.3889L596.917 30.0833L598.611 32L599.361 33L600.139 34L601.556 36L602.139 37L602.75 38L603.222 39L603.75 40L604.611 42L604.972 43L605.667 45L606.306 47L606.583 48L606.917 50L607 52L607 53L607 55L607 57L607 58L607 59L606.917 61L606.778 62L606.583 63L606 65L605.667 66L604.972 68L604.611 69L603.75 71L603.222 72L602.75 73L601.611 75L600.972 76L599.583 78L597.917 80L596.972 80.9722L596 81.9167L594 83.5833L593 84.3056L591 85.6111L590 86.1667L588 87.2222L587 87.7778L586 88.2222L585 88.75L583.056 89.5278L581.5 89.9167L580 90L580.778 90.7222L581.306 90.75L582.111 90.9444L583.028 90.9722L584 91L585 91L587 91L596 91L633 91L632.222 90.25L631.694 90.1667L629.972 89.5556L628 88.75L627 88.2222L626 87.75L624 86.5278L623 85.75L621 83.9722L619.083 82L618.25 81L617.472 80L616.25 78L615.778 77L615.25 76L614.472 74L614.222 73L613.806 71.0556L613.583 70.0556L613 68L614.5 68L618 68L622 68L624 68L634 68L634.278 69.5L634.944 71.0278L635.5 71.8889L637.083 73.2778L639 73.8889L640 73.9722L641 74L643 73.8889L644.944 73.3333L645.944 72.7222L648 71L647.722 69.5L647.056 67.9722L646.5 67.0833L644.917 65.4722L643 64.2778L641 63.3889L639 62.6667L638 62.3333L635 61.3333L634 61L632 60.3333L631 59.9722L630 59.6111L628 58.75L627 58.2222L626 57.75L625 57.1667L623 55.9722L621 54.5833L619.083 52.9167L617.472 51L616.861 50L616.278 49L615.389 47L615.028 46L614.694 45L614.417 44L614.111 42L614.222 40L614.417 39L614.694 38L615.333 36L615.694 35L616.556 33L617.083 32L618.417 30L619.222 29L620.083 28.0278L622 26.2222L623 25.4167L625 24.0278L627 22.8333L628 22.2778L629 21.8611L630 21.4444L631 21.1667L633 20.6389L634 20.3889L636 20.0833L637 20.0278L639 20L641 20L643 20L644 20L646 20.0833L648 20.4167L650 21L652 21.6944L653 22.0833L655 23.0833L657 24.4167L659 26.0833L660.917 28L662.528 30L663.75 32L664.222 33L664.75 34L665.528 36L665.972 37.9444L666.222 38.9444L666.278 39.5L667 41L662 41L661 41L649.056 41L646 41L645.639 39.5278L644.667 38.2778L643.889 37.7222L642.972 37.3333L641 37.0278L639 37.1111L638.028 37.3333L637.111 37.7222L635.75 39.1111L635.444 41L636.333 42.9167L637.111 43.75L639 45.0833L640 45.5833L641 45.9722L643 46.6111L644 46.8611L646 47.3889L647 47.6944L648 48L649 48.3333L651 49L653 49.6667L654 50.0278L655 50.3889L657 51.2778L659 52.3889L660 53.0278L661.972 54.4167L663.778 56.0833L664.583 57.0278L665.972 59L667.083 61L667.5 62L667.75 63L668.056 65L668.306 67L668.389 69L668.306 70L668.167 71L667.806 73L667.583 74L667.306 75L666.583 77L665.583 79L664.972 80L663.583 81.9722L661.917 83.7778L660 85.3056L658 86.6111L657 87.1667L655 88.2222L654 88.75L652.056 89.5278L650.5 89.9167L649 90L649.778 90.7222L650.306 90.75L651.111 90.9444L652.028 90.9722L653 91L654 91L656 91L660 91L662 91L665 91L670 91L678 91L683 91L689 91L694 91L702 91L701.222 90.25L700.694 90.1667L698.972 89.5556L698 89.1667L697 88.8056L696 88.3611L695 87.9444L693 86.9167L692 86.3056L690 85L688 83.5833L686 81.9167L684.083 80L682.417 78L681 76L679.694 74L679.083 73L678.056 71L677.194 69L676.833 68L676.444 67L676.167 66L675.639 64L675.389 63L675.083 61L675 59L675 58L675 56L675 53L675 52L675.083 50L675.389 48L675.639 47L675.861 46L676.444 44L677.25 42L677.778 41L678.778 39L679.25 38L680.389 36L681.028 35L682.417 33L684.083 31L685.028 30.0278L686 29.0833L688 27.4167L689 26.6944L691 25.3889L693 24.25L694 23.7778L696 22.7778L697 22.25L699 21.4444L701 20.8611L702 20.6389L703 20.3889L705 20.0833L707 20L708 20L711 20L713 20L714 20L716 20.0278L717 20.0833L719 20.4167L721 21L722 21.3333L724 22.0278L725 22.3889L726 22.8333L727 23.25L728 23.7778L729 24.25L731 25.4444L732 26.1667L734 27.6389L735 28.3889L736.917 30.0833L738.611 32L739.361 33L740.139 34L741.556 36L742.139 37L742.75 38L743.222 39L743.75 40L744.611 42L744.972 43L745.667 45L746.306 47L746.583 48L746.917 50L747 52L747 53L747 55L747 57L747 58L747 59L746.917 61L746.778 62L746.583 63L746 65L745.667 66L744.972 68L744.611 69L743.75 71L743.222 72L742.75 73L741.611 75L740.972 76L739.583 78L737.917 80L736.972 80.9722L736 81.9167L734 83.5833L733 84.3056L731 85.6111L730 86.1667L728 87.2222L727 87.7778L726 88.2222L725 88.75L723.056 89.5278L721.5 89.9167L720 90L720.778 90.7222L721.306 90.75L722.111 90.9444L723.028 90.9722L725 91L726 91L729 91L738 91L740 91L748 91L764 91L768 91L773 91L775 91L783 91L792 91L794 91L795 91L797 91L801 91L805 91L811 91L813 91L818 91L818 24L817.028 24.7778L816.833 25.3056L816.361 26.1111L816.028 27.0278L815.667 28L815.333 29L814.333 32L814 33L813.333 35L812.972 36L812.611 37L811.806 39L811.389 40L811.028 41L810.667 42L810.333 43L809.333 46L808.667 48L808.333 49L807.972 50L807.611 51L807.194 52L806.389 54L805.667 56L805 58L804 61L803.333 63L802.611 65L801.806 67L801.389 68L800.667 70L800 72L799 75L798.333 77L797.611 79L796.806 81L796.389 82L796.028 83L795.667 84L795.333 85L794.667 86.9444L794.444 87.5L794 89L778 89L774 89L773.556 87.5L773.333 86.9444L772.611 85L771.806 83L771.389 82L771.028 81L770.667 80L770 78L769 75L768.333 73L767.611 71L766.806 69L766.389 68L765.667 66L765 64L764 61L763.333 59L762.611 57L761.806 55L761.389 54L760.667 52L760 50L759 47L758.333 45L757.611 43L756.806 41L756.389 40L755.667 38L755.333 37L754.667 35L754 33L753 30L752.333 28L751.611 26L751.194 25.0556L750.806 24.0556L750.5 23.5L750 22L754 22L760 22L768 22L772 22L772.25 23.5L772.639 25.0556L772.861 26L773.139 27L773.389 28L773.694 29L774 30L774.333 31L775 33L775.306 34L775.611 35L776.139 37L776.389 38L777 40L777.333 41L778.333 44L779 46L779.611 48L780.139 50L780.389 51L780.694 52L781 53L781.333 54L782 56L782.583 57.9444L782.778 58.9444L782.917 59.5L783 61L785 61L785.083 59.5L785.222 58.9444L785.417 57.9444L786 56L786.667 54L787 53L787.306 52L787.611 51L787.861 50L788.389 48L789 46L789.667 44L790.667 41L791 40L791.611 38L791.861 37L792.389 35L792.694 34L793 33L793.667 31L794 30L794.306 29L794.611 28L794.861 27L795.139 26L795.361 25.0556L795.75 23.5L796 22L804 22L808 22L812 22L813 22L814 22L818 22L818 0L814 0L798 0L794 0L790 0L787 0L783 0L781 0L771 0L770 0L765 0L749 0L747 0L746 0L744 0L743 0L741 0L735 0L731 0L727 0L721 0L715 0L714 0L706 0L696 0L690 0L679 0L677 0L672 0L671 0L667 0L662 0L630 0L622 0L614 0L609 0L602 0L594 0L589 0L582 0L581 0L572 0L549 0L524 0z"/>
<path style="fill:#000000; stroke:none;" d="M196 67L183 67L180 67L179 67L178 67.0278L176 67.3333L175 67.7222L174 68.3056L172 69.8056L171 70.5833L169 71.8889L168 72.3889L167 72.7778L165 73.3333L164 73.5278L162 73.5278L160 73.1389L159 72.8333L158 72.5278L156 71.5833L155 70.9722L153.083 69.5833L151.417 67.9167L150.722 66.9722L150.083 66L149.056 64.0556L148.833 63.5L148 62L198 62L198 55L198 53L197.972 51L197.917 50L197.611 48L197.361 47L196.861 45L196.611 44L195.972 42L195.611 41L194.75 39L194.222 38L193.75 37L193.139 36L192.556 35L191.139 33L190.361 32L189.611 31L187.917 29.0833L186 27.4167L185 26.6944L183 25.3333L181 24.0833L179 23.0556L177 22.1944L176 21.8333L175 21.4444L174 21.1667L172 20.6389L171 20.3889L169 20.0833L168 20.0278L166 20L165 20L163 20L160 20L159 20L158 20L156 20.0833L155 20.2222L154 20.4167L152 21L151 21.3333L150 21.6667L148 22.4167L147 22.8889L146 23.4167L144 24.6667L143 25.3333L142 26L140 27.4167L138.083 29.0833L136.389 31L135.639 32L134.167 34L133.444 35L132.25 37L131.778 38L131.222 39L130.778 40L130.25 41L129.833 42L129.389 43L128.694 45L128.417 46L128.056 48L127.944 49L127.611 51L127.389 52L127.083 54L127.028 56L127.083 57L127.389 59L127.611 60L127.944 62L128.056 63L128.417 65L129 67L129.333 68L130.028 70L130.417 71L131.417 73L132.028 74L133.389 76L134.139 77L135.639 79L136.389 80L138.083 81.9167L139.028 82.7778L140 83.5833L142 85L144 86.3056L145 86.9167L147 87.9444L149 88.8056L150 89.1667L151 89.5556L152 89.8333L154 90.3611L155 90.6111L157 90.9167L159 91L160 91L163 91L166 91L167 91L169 90.9167L171 90.6111L172 90.3611L173 90.1389L175 89.5556L177 88.75L178 88.2222L180 87.2222L181 86.75L183 85.5278L184 84.75L185 83.9167L187 82L188.917 80L190.583 78L191.972 76L193.194 74L193.806 73L194.917 71L195.361 70.0556L195.889 68.5L196 67M442 67L429 67L426 67L425 67L423 67.0278L422 67.1111L420 67.7222L418 69.0833L417 69.9444L415 71.5L413 72.5278L412 72.8333L411 73.1389L409 73.5278L408 73.5556L407 73.5L405 73L404 72.6667L402 71.8889L401 71.3611L399 69.8889L397.083 68L395.5 66L394.944 65.0556L394.278 63.5L394 62L443 62L444 61L444 56L444 54L443.972 53L443.917 52L443.611 50L443.389 49L443.194 48L442.806 46L442.583 45L442.306 44L441.611 42L440.75 40L440.222 39L439.75 38L438.611 36L437.972 35L436.583 33L435.778 32L433.972 30L432 28.0833L430 26.4167L429 25.6944L427 24.3889L426 23.8333L425 23.2778L423 22.3889L422 22.0278L420 21.3333L419 21L417 20.4167L415 20.0833L414 20.0278L412 20L411 20L408 20L406 20L405 20L403 20.0278L402 20.0833L400 20.4167L398 21L397 21.3333L395 22.0278L394 22.3889L393 22.8333L392 23.2778L391 23.8333L390 24.3889L388 25.6944L387 26.4167L385 28.0833L383.028 30L382.083 31L380.417 33L379.028 35L378.389 36L377.833 37L377.25 38L376.778 39L376.25 40L375.389 42L375.028 43L374.389 45L374.139 46L373.639 48L373.389 49L373.083 51L373.028 52L373 54L373 56L373 58L373 59L373.083 61L373.389 63L373.639 64L373.861 65L374.444 67L374.833 68L375.611 70L376.417 72L377.417 74L378.694 76L379.417 77L381.083 79L382.028 80L383 81L385 82.9167L387 84.5833L388 85.3056L390 86.6111L391 87.1667L392 87.7222L394 88.6111L395 88.9722L397 89.6667L398 90L400 90.5833L401 90.7778L402 90.9167L404 91L405 91L407 91L410 91L412 91L413 91L415 90.9167L417 90.5833L418 90.3056L420 89.6667L421 89.3333L423 88.5833L425 87.5833L426 86.9722L428 85.6111L429 84.8611L430 84.1389L431.972 82.6111L433.778 80.9167L435.361 79L436.139 78L437.556 76L438.75 74L439.25 73L440.361 71L440.917 70.0556L441.361 69.0556L441.667 68.5L442 67M562 20.3889L561 20.6389L560 20.8611L558 21.4444L556 22.25L555 22.7778L553 23.7778L552 24.25L550 25.3889L549 26.0278L547 27.4167L545.028 29.0833L544.083 30.0278L542.417 32L541.694 33L540.389 35L539.25 37L538.778 38L537.778 40L537.25 41L536.444 43L535.861 45L535.639 46L535.389 47L535.083 49L535 51L535 52L535 55L535 58L535 59L535.028 61L535.083 62L535.389 64L535.639 65L536.167 67L536.444 68L537.194 70L538.056 72L539.083 74L539.694 75L541 77L541.694 78L543.222 80L545.028 81.9167L547 83.5833L549 85L551 86.3056L552 86.9167L554 87.9444L556 88.8056L558 89.5556L559 89.8333L561 90.3611L563 90.7778L564 90.9167L566 91L567 91L568 91L571 91L574 91L575 91L576 91L578 90.9167L580 90.6111L581 90.3611L582 90.1389L584 89.5556L586 88.75L587 88.2222L589 87.2222L590 86.75L592 85.6111L593 84.9722L595 83.5833L596.972 81.9167L597.917 80.9722L599.583 79L600.306 78L601.611 76L602.167 75L603.222 73L603.75 72L604.167 71L604.611 70L605.333 68L606 66L606.583 64L606.778 63L606.917 62L607 60L607 59L607 58L607 56L607 53L607 52L607 51L606.917 49L606.778 48L606.583 47L606 45L605.333 43L604.611 41L603.75 39L603.222 38L602.75 37L601.556 35L600.833 34L599.361 32L598.611 31.0278L596.917 29.2222L595 27.6389L594 26.8611L592 25.4444L591 24.8611L590 24.25L589 23.7778L588 23.25L586 22.3889L584 21.6667L582 21L580 20.4167L579 20.2222L578 20.0833L576 20L575 20L574 20L571 20L568 20L567 20L566 20L564 20.0833L562 20.3889M648 71L646.5 71.75L645.944 72.1944L644 73.3056L643 73.6667L641 73.9444L640 73.8889L638.028 73.2778L637.083 72.6667L635.5 71.0278L634.528 69.5L634 68L613 68L613.25 69.5L613.389 70.0556L613.806 72L614.222 74L614.472 75L615.25 77L615.778 78L616.861 80L617.472 81L619.083 83L621 84.9167L622 85.75L623 86.5278L624 87.1389L626 88.2222L627 88.75L629 89.5556L631 90.1389L632 90.3611L633 90.6111L635 90.9167L636 90.9722L638 91L640 91L643 91L644 91L645 91L647 90.9167L649 90.6111L650 90.3611L651 90.1389L653 89.5556L655 88.75L656 88.2222L658 87.1667L659 86.6111L660.972 85.3056L661.917 84.5833L663.583 82.9167L664.972 81L665.583 80L666.583 78L666.972 77L667.583 75L667.806 74L668.194 72L668.583 70L668.694 69L668.583 67L668.389 66L668.056 64L667.944 63L667.5 61L667.083 60L665.972 58L665.306 57.0278L664.583 56.0833L662.917 54.4167L661.972 53.6944L660 52.3889L659 51.8333L658 51.2778L657 50.8333L656 50.3889L654 49.6667L653 49.3333L651 48.6667L649 48L647 47.3889L645 46.8611L644 46.6111L642 45.9722L641 45.5833L640 45.0833L638.028 43.75L637.139 42.9167L636.056 41L636.444 39.1111L637.139 38.3333L638.028 37.7222L639 37.3333L641 37.1389L642.972 37.7222L643.889 38.2778L645.222 39.5278L646 41L649.056 41L667 41L666.417 38.9444L666.194 37.9444L665.778 36L665.528 35L664.75 33L664.222 32L663.139 30L662.528 29L660.917 27.0278L659 25.2222L658 24.4167L656 23.0833L655 22.5556L653 21.6944L652 21.3333L651 21L649 20.4167L647 20.0833L645 20L644 20L642 20L639 20L638 20L636 20.0278L635 20.0833L633 20.3889L632 20.6389L630 21.1667L629 21.4444L628 21.8611L627 22.2778L626 22.8333L624 24.0278L622 25.4167L620.083 27.0833L618.417 29L617.722 30L617.083 31L616.083 33L615.694 34L615 36L614.417 38L614.083 40L614.028 42L614.083 43L614.417 45L615.028 47L615.389 48L616.278 50L616.861 51L617.472 51.9722L619.083 53.7778L621 55.3056L623 56.6111L624 57.1667L625 57.75L626 58.2222L627 58.75L629 59.6111L630 59.9722L631 60.3333L633 61L634 61.3333L636 62L637 62.3333L638 62.6667L640 63.3889L642 64.2778L643.972 65.4722L644.917 66.25L646.5 67.9722L647.472 69.5L648 71M702 20.3889L701 20.6389L700 20.8611L698 21.4444L696 22.25L695 22.7778L693 23.7778L692 24.25L690 25.3889L689 26.0278L687 27.4167L685.028 29.0833L684.083 30.0278L682.417 32L681.694 33L680.389 35L679.25 37L678.778 38L677.778 40L677.25 41L676.444 43L675.861 45L675.639 46L675.389 47L675.083 49L675 51L675 52L675 55L675 58L675 59L675.028 61L675.083 62L675.389 64L675.639 65L676.167 67L676.444 68L677.194 70L678.056 72L679.083 74L679.694 75L681 77L681.694 78L683.222 80L685.028 81.9167L687 83.5833L689 85L691 86.3056L692 86.9167L694 87.9444L696 88.8056L698 89.5556L699 89.8333L701 90.3611L703 90.7778L704 90.9167L706 91L707 91L708 91L711 91L714 91L715 91L716 91L718 90.9167L720 90.6111L721 90.3611L722 90.1389L724 89.5556L726 88.75L727 88.2222L729 87.2222L730 86.75L732 85.6111L733 84.9722L735 83.5833L736.972 81.9167L737.917 80.9722L739.583 79L740.306 78L741.611 76L742.167 75L743.222 73L743.75 72L744.167 71L744.611 70L745.333 68L746 66L746.583 64L746.778 63L746.917 62L747 60L747 59L747 58L747 56L747 53L747 52L747 51L746.917 49L746.778 48L746.583 47L746 45L745.333 43L744.611 41L743.75 39L743.222 38L742.75 37L741.556 35L740.833 34L739.361 32L738.611 31.0278L736.917 29.2222L735 27.6389L734 26.8611L732 25.4444L731 24.8611L730 24.25L729 23.7778L728 23.25L726 22.3889L724 21.6667L722 21L720 20.4167L719 20.2222L718 20.0833L716 20L715 20L714 20L711 20L708 20L707 20L706 20L704 20.0833L702 20.3889M201 22L201.694 23.5L202.083 24.0556L203.389 26L204.861 28L205.639 29L206.361 30L207.139 31L208.611 33L209.306 34L210.694 36L211.389 37L212.139 38L213.611 40L214.306 41L215.694 43L216.389 44L217.139 45L218.611 47L220 48.9722L220.639 49.8889L221.361 50.6944L221.75 51.2222L223 52L222.472 53.5L222.111 54.0556L221.583 55.0556L220.972 56L220.333 57L219 59L218.306 60L217.611 61L216.861 62L215.389 64L214.694 65L213.306 67L212.611 68L211.861 69L210.389 71L209.694 72L208.306 74L207.611 75L206.139 77L205.389 78L204 80L203.333 81L202 83L200.611 85L199.222 86.9444L198.75 87.5L198 89L224 89L225.056 87.5L225.389 86.9444L226.667 85L227.333 84L227.972 83L228.611 82L229.806 80L230.389 79L231.667 77L232.333 76L233 75L234.361 73.0556L235.583 71.5L237 70L237.528 71.5L237.889 72.0556L238.417 73.0556L239.028 74L239.667 75L241 77L242.333 79L243.611 81L244.194 82L245.389 84L246.028 85L246.694 85.9722L247.417 86.8889L249.083 88.2778L251 88.8889L253 89L254 89L257 89L275 89L274.25 87.5L273.778 86.9444L273.111 85.9444L272.361 85L271.639 84L270.861 83L269.389 81L268.694 80L267.306 78L266.611 77L265.139 75L264.389 74L263.694 73L262.306 71L261.611 70L260.861 69L259.389 67L258.694 66L257.306 64L256.611 63L255.139 61L254.361 60L253.639 59L252.861 58L251.417 56.1111L250.667 55.3056L250.25 54.7778L249 54L250.056 52.5L250.389 51.9444L251.056 50.9444L252.389 49L253.139 48L254.611 46L255.306 45L256.694 43L257.389 42L258.861 40L259.639 39L260.361 38L261.139 37L262.611 35L264 33L265.389 31L266.861 29L267.611 28L268.972 26L269.583 25.0556L270.111 24.0556L270.472 23.5L271 22L246 22L245 23.5L244.75 24.0556L244.139 25.0556L243.611 26L242.389 28L241.806 29L240.611 31L239.389 33L238.833 34L238.278 34.9444L237.833 35.9444L237.5 36.5L237 38L235.75 36.5L234.639 34.9444L233.389 33L232.806 32L231.611 30L230.389 28L229.806 27L229.194 26L228.056 24.0556L227.694 23.5L227 22L201 22M750 22L750.278 23.5L750.472 24.0556L751.194 26L751.611 27L752.333 29L752.667 30L753.667 33L755 37L755.667 39L756.028 40L756.389 41L756.806 42L757.611 44L758.333 46L759 48L760 51L760.667 53L761.389 55L762.194 57L762.611 58L762.972 59L763.333 60L764 62L765 65L765.667 67L766.389 69L766.806 70L767.611 72L768.333 74L769 76L770 79L770.667 81L771.389 83L771.806 84L772.194 85L773 86.9444L773.194 87.5L774 89L778 89L794 89L794.806 87.5L794.972 86.9444L795.361 85.9444L795.667 85L796.389 83L796.806 82L797.611 80L798.333 78L799 76L800 73L800.667 71L801.389 69L801.806 68L802.611 66L803.333 64L804 62L805 59L805.667 57L806.028 56L806.389 55L806.806 54L807.611 52L808.333 50L809 48L810 45L810.667 43L811.028 42L811.389 41L812.194 39L812.611 38L813.333 36L814 34L814.667 32L815 31L815.667 29L816.028 28L816.389 27L816.806 26L817.528 24.0556L817.722 23.5L818 22L815.944 22L814.944 22L813 22L811 22L803 22L798.056 22L796 22L795.389 24.0556L794.861 26L794.611 27L794 29L793.667 30L793 32L792.694 33L792.389 34L792.139 35L791.611 37L791 39L790.667 40L789.667 43L789 45L788.389 47L787.861 49L787.611 50L787.306 51L787 52L786.333 54L786 55L785.417 57L785.222 57.9444L785.028 59.5L785 61L783 61L782.972 59.5L782.778 57.9444L782.583 57L782 55L781.667 54L781 52L780.694 51L780.389 50L780.139 49L779.611 47L779 45L778.333 43L777.333 40L777 39L776.389 37L775.861 35L775.611 34L775.306 33L775 32L774.333 30L774 29L773.389 27L773.139 26L772.611 24.0556L772 22L766 22L763 22L757 22L750 22z"/>
<path style="fill:#ffffff; stroke:none;" d="M44 30L43.75 31.5L43.5833 32.0556L43.3056 33.0556L43 34L42.3889 36L41.8611 38L41.6111 39L41 41L40.3333 43L40 44L39.3889 46L38.8611 48L38.6111 49L38.3056 50L38 51L37.6667 52L37 54L36.6944 54.9444L36.4167 55.9444L36.25 56.5L36 58L53 58L52.9167 56.5L52.7778 55.9444L52.5833 54.9444L52 53L51.3333 51L51 50L50.3889 48L49.8611 46L49.6111 45L49.3056 44L49 43L48.3333 41L48 40L47.6944 39L47.3889 38L46.8611 36L46.6111 35L45.9722 33.0278L45.6389 32.1111L45.1667 31.3056L44.9722 30.7778L44 30M149 48L177 48L176.722 46.5L176.083 44.9444L174.972 43.0833L173.583 41.4167L172.778 40.6944L170.972 39.4167L169 38.4722L167 37.8611L166 37.6389L165 37.3889L163 37.1111L162 37.1111L160 37.4167L159 37.6944L158 38.0278L157 38.3889L155 39.2778L153.028 40.4722L151.25 42.0833L150.5 43.0278L149.5 44.9444L149.25 45.9444L149 48M394 48L423 48L422.5 46.5L422.167 45.9444L421.722 44.9444L420.528 43.0278L419.75 42.0833L417.972 40.4722L417 39.8611L415 38.8333L414 38.3889L412 37.6944L411 37.4167L409 37.1111L408 37.1111L406 37.3889L405 37.6389L404 37.8611L402 38.4722L400 39.5L399 40.25L397.083 42.0278L395.5 44L394.5 45.9444L394.278 46.5L394 48M485 39.4167L483 40.0278L481 40.8333L480 41.2778L478 42.4722L477.028 43.25L476.083 44.0833L474.5 46L473.917 47L473.417 48L472.694 50L472.417 51L472.083 53L472 55L472 56L472.083 58L472.417 60L473.028 62L473.417 63L474.5 65L476.083 66.9722L477.028 67.9167L478 68.75L479 69.5L480 70.0833L482 70.9722L484 71.5833L485 71.7778L486 71.9167L488 71.9722L489 71.9167L491 71.6111L492 71.3611L493 71.1111L495 70.3889L497 69.2778L498 68.5833L499.917 66.9167L500.75 65.9722L501.528 65L502.722 63L503.139 62L503.528 61L503.75 60L503.917 59L504 57L504 56L504 55L503.972 53L503.917 52L503.528 50L503.139 49L502.722 48L501.528 46L499.917 44.0833L498 42.4167L497 41.7222L495 40.6111L494 40.2222L492 39.6389L490 39.2222L489 39.0833L487 39.0833L485 39.4167M568 39.4167L566 40.0278L565 40.4167L563 41.5L561.028 43.0833L560.083 44.0278L558.472 46L557.861 47L556.861 49L556.472 50L556.25 51L556.083 52L556 54L556 55L556 56L556 57L556.083 59L556.25 60L556.472 61L556.861 62L557.278 63L558.472 65L559.25 66L561.028 67.9167L562 68.75L563 69.5L565 70.5833L566 70.9722L568 71.5833L570 71.9167L571 71.9444L572 71.9167L574 71.5833L576 70.9722L577 70.5833L579 69.5L580.972 67.9167L581.917 66.9722L583.528 65L584.139 64L585.139 62L585.528 61L585.75 60L585.917 59L586 57L586 56L586 55L586 54L585.917 52L585.75 51L585.528 50L585.139 49L584.722 48L583.528 46L582.75 45L580.972 43.0833L580 42.25L579 41.5L577 40.4167L576 40.0278L574 39.4167L572 39.0833L571 39.0556L570 39.0833L568 39.4167M708 39.4167L706 40.0278L705 40.4167L703 41.5L701.028 43.0833L700.083 44.0278L698.472 46L697.861 47L696.861 49L696.472 50L696.25 51L696.083 52L696 54L696 55L696 56L696 57L696.083 59L696.25 60L696.472 61L696.861 62L697.278 63L698.472 65L699.25 66L701.028 67.9167L702 68.75L703 69.5L705 70.5833L706 70.9722L708 71.5833L710 71.9167L711 71.9444L712 71.9167L714 71.5833L716 70.9722L717 70.5833L719 69.5L720.972 67.9167L721.917 66.9722L723.528 65L724.139 64L725.139 62L725.528 61L725.75 60L725.917 59L726 57L726 56L726 55L726 54L725.917 52L725.75 51L725.528 50L725.139 49L724.722 48L723.528 46L722.75 45L720.972 43.0833L720 42.25L719 41.5L717 40.4167L716 40.0278L714 39.4167L712 39.0833L711 39.0556L710 39.0833L708 39.4167z"/>
</svg>
